# xmcd
#
# Track frame offsets: 
#        150
#        17085
#        36375
#        52690
#        69857
#        82352
#        97102
#        115205
#        127762
#        148132
#        162422
#        176147
#        189840
#        205880
#        222490
#        245025
#        257632
#        277080
#        290642
#        307810
#
# Disc length: 4359 seconds
#
# Revision: 2
# Processed by: cddbd v1.5.2PL0 Copyright (c) Steve Scherf et al.
# Submitted via: ExactAudioCopy v0.99pb5
#
DISCID=31110514
DTITLE=Bride - The Lost Reels
DYEAR=1994
DGENRE=
TTITLE0=How Long
TTITLE1=Fine Line
TTITLE2=Only Hurts When I Laugh
TTITLE3=Lisa
TTITLE4=Let The Son Shine
TTITLE5=I Don't Get It
TTITLE6=Hollywood
TTITLE7=Sugar
TTITLE8=I Am The Devil
TTITLE9=Good Rock 'N' Roll
TTITLE10=Dirty
TTITLE11=18
TTITLE12=Help
TTITLE13=Could You Live In My World
TTITLE14=Think About Our Future
TTITLE15=Sleepy Southern Town
TTITLE16=Pyramid
TTITLE17=Echoes Of Mercy
TTITLE18=I Miss Dancing With You
TTITLE19=It's The Devil
EXTD=
EXTT0=
EXTT1=
EXTT2=
EXTT3=
EXTT4=
EXTT5=
EXTT6=
EXTT7=
EXTT8=
EXTT9=
EXTT10=
EXTT11=
EXTT12=
EXTT13=
EXTT14=
EXTT15=
EXTT16=
EXTT17=
EXTT18=
EXTT19=
PLAYORDER=
